<?xml version="1.0" encoding="iso-8859-1"?>
<!-- Generator: Adobe Illustrator 19.0.0, SVG Export Plug-In . SVG Version: 6.00 Build 0)  -->
<svg version="1.1" id="Capa_1" xmlns="http://www.w3.org/2000/svg" xmlns:xlink="http://www.w3.org/1999/xlink" x="0px" y="0px"
	 viewBox="0 0 490 490" style="enable-background:new 0 0 490 490;" xml:space="preserve">
<g>
	<g>
		<g>
			<path d="M434,400.95h56l-25.7-142.3l0,0c10.9-1.2,19.4-10.5,19.4-21.8c0-8.6-4.7-15.9-11.7-19.4v-68.1l14.4-3.5L243,89.05
				L0,145.85l243.1,57.2l208.8-49v63.8c-7,3.5-11.7,10.9-11.7,19.4c0,11.3,8.6,20.6,19.4,21.8l0,0L434,400.95z"/>
			<path d="M76.2,184.35v141.9c110.1,22.9,223.6,22.9,333.7,0l0,0v-141.9l-166.8,38.9L76.2,184.35z"/>
		</g>
	</g>
</g>
<g>
</g>
<g>
</g>
<g>
</g>
<g>
</g>
<g>
</g>
<g>
</g>
<g>
</g>
<g>
</g>
<g>
</g>
<g>
</g>
<g>
</g>
<g>
</g>
<g>
</g>
<g>
</g>
<g>
</g>
</svg>
